name C:\Users\Nicos\Desktop\Gil_twoSteps\Study2\ExperimentalData\IK_Splined\twoSteps_IK_BSplines_80_meshInts_study2_p02_s_01_lowIK_modROI.mot
datacolumns 38
datarows 13
range 0.54600000 0.56235000
endheader
                time	         pelvis_tilt	         pelvis_list	     pelvis_rotation	           pelvis_tx	           pelvis_ty	           pelvis_tz	       hip_flexion_r	     hip_adduction_r	      hip_rotation_r	        knee_angle_r	       ankle_angle_r	    subtalar_angle_r	         mtp_angle_r	       hip_flexion_l	     hip_adduction_l	      hip_rotation_l	        knee_angle_l	       ankle_angle_l	    subtalar_angle_l	         mtp_angle_l	    lumbar_extension	      lumbar_bending	     lumbar_rotation	          arm_flex_r	           arm_add_r	           arm_rot_r	        elbow_flex_r	           pro_sup_r	        wrist_flex_r	         wrist_dev_r	          arm_flex_l	           arm_add_l	           arm_rot_l	        elbow_flex_l	           pro_sup_l	        wrist_flex_l	         wrist_dev_l	
          0.54600000	        -23.03030473	         12.59947910	         -7.18234882	         -0.28944843	          0.87242393	          0.35078020	        -11.54997264	        -16.63078305	          0.59542280	        -25.44674530	        -42.82425141	        -15.76664536	         -5.78490456	         88.24357719	          0.79520613	        -11.20524418	        -86.13250137	          6.54447158	        -14.41302565	          7.21065135	        -14.99645370	        -23.77658677	         -7.00836909	         55.84502624	        -12.95691735	         24.66806340	        141.28473548	         60.41562202	        -18.61316754	         10.25106547	        -76.15884676	          4.59284681	        -44.90529731	         52.77181917	         63.42416453	          1.35333342	         25.46552681	
          0.54684503	        -23.00996907	         12.44961343	         -7.00937812	         -0.28473063	          0.87300425	          0.35088266	        -11.47793676	        -16.36337853	          0.37854021	        -25.97048711	        -42.80751660	        -15.91042399	         -5.93064418	         87.99073640	          0.83284738	        -11.13346152	        -85.76224957	          6.55360939	        -14.38380678	          7.20011530	        -15.13076244	        -23.69648084	         -7.12573670	         55.12998315	        -13.20046027	         24.57889850	        141.51476574	         60.34720051	        -18.65875274	         10.26802643	        -75.84025115	          4.57373565	        -44.92888806	         52.84844314	         63.41094157	          1.37034088	         25.45319494	
          0.54951497	        -22.91565356	         11.97175048	         -6.47036056	         -0.26981926	          0.87485834	          0.35122694	        -11.22876832	        -15.51779492	         -0.28719986	        -27.69840262	        -42.66098566	        -16.27799457	         -6.24331142	         87.13253770	          0.95324126	        -10.90513449	        -84.61032900	          6.57094582	        -14.27466903	          7.17810692	        -15.60640366	        -23.43759799	         -7.46107261	         52.78703790	        -13.97179453	         24.19366864	        142.18815688	         60.13648449	        -18.80682555	         10.32881960	        -74.79456465	          4.45113966	        -44.97074670	         53.13146989	         63.40062999	          1.42031069	         25.41056106	
          0.55145000	        -22.79990052	         11.61856562	         -6.09153385	         -0.25900432	          0.87623444	          0.35150889	        -11.01418560	        -14.90386758	         -0.73891517	        -29.06596020	        -42.40712776	        -16.40767812	         -6.23687327	         86.41702912	          1.04280253	        -10.73725429	        -83.80373992	          6.56532340	        -14.16905622	          7.17994280	        -16.03197236	        -23.24085980	         -7.64813874	         50.95703509	        -14.53371296	         23.75128609	        142.59198502	         59.99239015	        -18.92051357	         10.38423635	        -73.97513444	          4.26420283	        -44.94956166	         53.40111762	         63.44276939	          1.45058716	         25.37387586	
          0.55145000	        -22.79990052	         11.61856562	         -6.09153385	         -0.25900432	          0.87623444	          0.35150889	        -11.01418560	        -14.90386758	         -0.73891517	        -29.06596020	        -42.40712776	        -16.40767812	         -6.23687327	         86.41702912	          1.04280253	        -10.73725429	        -83.80373992	          6.56532340	        -14.16905622	          7.17994280	        -16.03197236	        -23.24085980	         -7.64813874	         50.95703509	        -14.53371296	         23.75128609	        142.59198502	         59.99239015	        -18.92051357	         10.38423635	        -73.97513444	          4.26420283	        -44.94956166	         53.40111762	         63.44276939	          1.45058716	         25.37387586	
          0.55229503	        -22.74935108	         11.46432955	         -5.92609997	         -0.25428143	          0.87683539	          0.35163202	        -10.92047718	        -14.63576510	         -0.93617956	        -29.66317353	        -42.29626784	        -16.46431101	         -6.23406172	         86.10456604	          1.08191400	        -10.66394090	        -83.45150192	          6.56286809	        -14.12293504	          7.18074453	        -16.21781850	        -23.15494410	         -7.72983065	         50.15787161	        -14.77910313	         23.55809733	        142.76833704	         59.92946405	        -18.97016120	         10.40843688	        -73.61728871	          4.18256739	        -44.94031014	         53.51887297	         63.46117169	          1.46380891	         25.35785540	
          0.55496497	        -22.56822986	         10.98614407	         -5.41061947	         -0.23934923	          0.87874341	          0.35202912	        -10.59580994	        -13.80917446	         -1.54906972	        -31.61074324	        -41.91011468	        -16.57882887	         -6.13606500	         85.06665378	          1.20889088	        -10.43847895	        -82.35622450	          6.53839357	        -13.97695134	          7.19320898	        -16.84580208	        -22.88418948	         -7.94210288	         47.53664797	        -15.53627735	         22.81847335	        143.25102170	         59.73422955	        -19.14183897	         10.49800190	        -72.44356859	          3.84848817	        -44.85245744	         53.92717185	         63.55047201	          1.50570304	         25.30411821	
          0.55690000	        -22.40852931	         10.65171934	         -5.04662225	         -0.22851419	          0.88013854	          0.35232763	        -10.32253605	        -13.23734303	         -1.97946426	        -33.10275725	        -41.58259005	        -16.57625510	         -5.94666995	         84.24714344	          1.30543388	        -10.28328363	        -81.58587411	          6.49845037	        -13.87080560	          7.21543462	        -17.35510696	        -22.68889650	         -8.03505407	         45.50915267	        -16.06091486	         22.11077873	        143.50186303	         59.59749812	        -19.28593619	         10.58031651	        -71.53570465	          3.50522049	        -44.71091742	         54.27122332	         63.65657829	          1.53622337	         25.26102924	
          0.55690000	        -22.40852931	         10.65171934	         -5.04662225	         -0.22851419	          0.88013854	          0.35232763	        -10.32253605	        -13.23734303	         -1.97946426	        -33.10275725	        -41.58259005	        -16.57625510	         -5.94666995	         84.24714344	          1.30543388	        -10.28328363	        -81.58587411	          6.49845037	        -13.87080560	          7.21543462	        -17.35510696	        -22.68889650	         -8.03505407	         45.50915267	        -16.06091486	         22.11077873	        143.50186303	         59.59749812	        -19.28593619	         10.58031651	        -71.53570465	          3.50522049	        -44.71091742	         54.27122332	         63.65657829	          1.53622337	         25.26102924	
          0.55774503	        -22.33878797	         10.50567584	         -4.88766442	         -0.22378252	          0.88074780	          0.35245799	        -10.20319715	        -12.98762386	         -2.16741785	        -33.75432079	        -41.43955981	        -16.57513114	         -5.86396100	         83.88926271	          1.34759427	        -10.21550972	        -81.24946157	          6.48100714	        -13.82445168	          7.22514057	        -17.57752075	        -22.60361192	         -8.07564591	         44.62374408	        -16.29002441	         21.80172801	        143.61140562	         59.53778742	        -19.34886354	         10.61626335	        -71.13923984	          3.35531526	        -44.64910679	         54.42147083	         63.70291498	          1.54955163	         25.24221226	
          0.56041497	        -22.10861909	         10.06950684	         -4.39178487	         -0.20881783	          0.88266639	          0.35286200	         -9.78918922	        -12.24422780	         -2.76284991	        -35.85750710	        -41.02158721	        -16.53846842	         -5.58599844	         82.72014073	          1.48668799	        -10.01680211	        -80.20309373	          6.40313513	        -13.69800607	          7.26353416	        -18.30637483	        -22.34252886	         -8.14755431	         41.71863618	        -16.97133027	         20.67036602	        143.85778935	         59.35039423	        -19.57475856	         10.74961847	        -69.83984996	          2.79134153	        -44.36449367	         54.92501833	         63.87915481	          1.59637436	         25.18045063	
          0.56235000	        -21.93073042	          9.78190903	         -4.03957795	         -0.19795583	          0.88404965	          0.35314591	         -9.44744949	        -11.75692688	         -3.19616396	        -37.43200742	        -40.75696676	        -16.47453430	         -5.36577439	         81.82953451	          1.59413507	         -9.89020131	        -79.46342861	          6.32101702	        -13.62894889	          7.30007859	        -18.86407888	        -22.16276784	         -8.13608949	         39.49178275	        -17.41704816	         19.67564157	        143.92382364	         59.21601312	        -19.76902093	         10.86858414	        -68.84540158	          2.28067102	        -44.05743662	         55.32248988	         64.04054936	          1.63562469	         25.13308525	
          0.56235000	        -21.93073042	          9.78190903	         -4.03957795	         -0.19795583	          0.88404965	          0.35314591	         -9.44744949	        -11.75692688	         -3.19616396	        -37.43200742	        -40.75696676	        -16.47453430	         -5.36577439	         81.82953451	          1.59413507	         -9.89020131	        -79.46342861	          6.32101702	        -13.62894889	          7.30007859	        -18.86407888	        -22.16276784	         -8.13608949	         39.49178275	        -17.41704816	         19.67564157	        143.92382364	         59.21601312	        -19.76902093	         10.86858414	        -68.84540158	          2.28067102	        -44.05743662	         55.32248988	         64.04054936	          1.63562469	         25.13308525	
